<?xml version="1.0" encoding="utf-8"?>
<!-- Generator: Adobe Illustrator 19.0.0, SVG Export Plug-In . SVG Version: 6.00 Build 0)  -->
<svg version="1.1" id="Layer_1" xmlns="http://www.w3.org/2000/svg" xmlns:xlink="http://www.w3.org/1999/xlink" x="0px" y="0px"
	 viewBox="0 0 140 140.5" style="enable-background:new 0 0 140 140.5;" xml:space="preserve">
<style type="text/css">
	.st0{fill:#F63E3E;}
</style>
<path class="st0" d="M65.9,71.3c0.3-5.6-1.4-1.2-4.8-4.2c-3.5-3.1,0.7-2.5,1-4c0.5-2.5-1.2-2-1.8-2.4c0,0-1.7,0.3-2.4-0.2
	c-0.9-0.6-1-3.8-2-4.1c-0.6-0.2-0.7,2.1-0.8,2.3c-0.4-0.8-0.6-0.8-0.3-1.8c-2.8,1.4-0.5,3.4,0.8,6c-3,1.4-3.5,1-2,4.2
	c1-0.5,2.1-1,3.1-1.5c0.4,2,0.5,4,0.5,6.1c0.4-0.8,0.8-0.8,1.2-0.1c-3.8,0.6,0.1,6,1.2,7.6c0.3-2.6,0.3-5.2,0-7.8
	c1.1,2.3,4.4,12.4,6.5,12.8c3.4,0.6,1.5-3,0.9-4.3c-1.5-3.2-3-6.4-4.5-9.5C63.6,70.6,64.8,70.9,65.9,71.3
	C65.9,70.4,64.8,70.9,65.9,71.3z M57.8,64c0-0.1,0-0.1,0-0.2C57.8,63.8,57.8,63.9,57.8,64z"/>
<path class="st0" d="M84.3,70.4c0.3,0.1,0.3-0.6-0.1-0.6C84.6,71.4,84.2,70.2,84.3,70.4C84.5,70.5,84.2,70.2,84.3,70.4z"/>
<path class="st0" d="M84.5,69.9c0,1-0.5,1.4-1.4,1.2c1.3-2-0.6-1.8-2.4-2.1c0.9-2.7,1.6-5.4,2-8.2c-4.5-0.4-3.1,1.4-4.4,5.5
	c-1.6,5-4.5,9.3-8.2,13c4.1,3.2,5.3-0.7,7.7-4.4c2.6-4.1,4.3-2.6,9.3-1.1c0.3-1.1,0.6-2.2,0.9-3.3c0,0-4.9-0.3-3,0
	C85.5,70.3,85.3,70,84.5,69.9C84.7,71,86,70.2,84.5,69.9z M76.4,73.8c0.4-0.4,1-0.7,1.6-1C77.7,73.5,76.8,73.4,76.4,73.8z
	 M78.1,72.9c-0.1-0.1,0.2-0.6,0.4-0.3C78.3,72.6,78.2,72.8,78.1,72.9C78,72.8,78.1,72.8,78.1,72.9z"/>
<path class="st0" d="M95.9,43.2c-3.6-1.4-5-3.1-6.8,0.5c1.8,0.7,3.6,1.5,5.4,2.4C95,45.1,95.4,44.1,95.9,43.2
	C95,42.8,95.4,44.1,95.9,43.2z M93.7,43.2C93.3,42.8,94.3,43.1,93.7,43.2C93.6,43.2,94,43.2,93.7,43.2z M94.2,42.6
	c0,0.1,0,0.1-0.2,0C94.1,42.6,94.2,42.6,94.2,42.6C94.2,42.7,94.2,42.6,94.2,42.6z M94.2,43.1C94.3,43,94.4,43.1,94.2,43.1
	C94.2,43.1,94.3,43.1,94.2,43.1z M94.3,43.4C94.3,43.4,94.3,43.4,94.3,43.4C94.3,43.4,94.3,43.4,94.3,43.4z"/>
<path class="st0" d="M105.2,37.8c0.2-0.7,0.5-1.3,0.7-2c-0.7-0.2-2.2-1-2.9-0.6c-0.5,0.3-1.7,4.9-1.7,5c1.6,4.1,3.5-1.2,3.9-2.6
	C105.2,37.8,104.8,39.1,105.2,37.8C105.5,37.1,104.7,39.4,105.2,37.8z"/>
<path class="st0" d="M40.5,132.3C39.7,132.2,40.6,132.5,40.5,132.3C40.2,132.3,40.5,132.3,40.5,132.3z"/>
<g>
	<path class="st0" d="M39.9,132.6c-1-0.8-1.4-0.7-1.2,0.6c-0.5-0.2-0.1-2.3-0.5-2.4c-0.3,3.3-2.4,0.9-4.3-0.3
		c-1.5-0.9-3.4-1.8-4.7-3.1c-0.8-0.8-0.5-2.1,0.7-2.3c1.1-0.2,3.1,0.7,4.2,1.5c2.2,1.4,5.7,2.2,6,4.8
		C39.8,130.4,38,131.7,39.9,132.6C39.5,132.6,39.8,132.5,39.9,132.6z"/>
	<path class="st0" d="M38.3,130.7C38.3,130.5,38.3,130.7,38.3,130.7C38.3,130.7,38.3,130.7,38.3,130.7z"/>
</g>
<path class="st0" d="M40,131.8c0,0.1,0.4,0.3,0.4,0.1C40.2,131.9,40.2,131.8,40,131.8z"/>
<path class="st0" d="M62.8,56.4C62.8,56.4,62.9,56.3,62.8,56.4C62.8,56.4,62.8,56.4,62.8,56.4z"/>
<path class="st0" d="M65.4,55.2c-0.2-0.1-0.2,0-0.3,0.1C65.3,55.3,65.3,55.2,65.4,55.2C65.3,55.1,65.4,55.2,65.4,55.2z"/>
<path class="st0" d="M66.5,55.3c-0.2-0.1-0.1,0.2-0.2,0.4C66.7,55.7,66.7,55.6,66.5,55.3C66.3,55.2,66.6,55.4,66.5,55.3z"/>
<path class="st0" d="M62.6,56.9c-0.1,0-0.2,0-0.2,0C62.4,57.2,62.5,57.1,62.6,56.9z"/>
<path class="st0" d="M114.7,56.3c-0.7-1.5-1-4.2-2.6-2.6c0.1,0.1,0.3-0.9,0-0.2c0-0.1,0.9-1.2-0.1-0.3c1.5-2.4-3.3-9.4-4.6-12.1
	c-1,0.5-2.7,0.7-2.1,1.6c0.4-0.7-4.5,0.9-3.5,1c-1.9-0.3-3.2-5.3-4.1-7.2c-4.5,2.2-1.7,2.1-0.6,6.3c1.6,6-1.7,0.7-4.1,5.1
	c-1.1,2,2.1,6.5,3.3,9.1c1,2.1,2.4,7.3,4.2,8.7c2.2,1.8-0.8,2.4,3.6,0.3c-2.9-6-3.7-5.4,2.4-8.3c0.9-0.4,7.1-3.6,5.1,0.6
	c-0.7,1.4-3.1,2-4.4,2.6c1.7,2.2,1.1,2,3.4,1.6C113.6,62.1,116.1,59,114.7,56.3C114.1,55.1,115.7,58.1,114.7,56.3z M108.8,45.4
	C108.8,45.4,108.7,45.6,108.8,45.4C108.8,45.5,108.7,45.6,108.8,45.4z M108.5,49.7c-0.1,0-0.2-0.1-0.3-0.3
	C108.3,49.3,108.5,49.6,108.5,49.7z M108.5,45c0.1,0.2-0.1,0.3-0.2,0.1C108.4,45,108.4,45.1,108.5,45z M108.3,46.2
	C108.3,46.3,107.3,45.9,108.3,46.2C108.3,46.3,108.2,46.2,108.3,46.2z M107.6,43.9c-0.2,0-0.3-0.3-0.4-0.5
	C107.4,43.5,107.5,43.6,107.6,43.9z M107.6,48.3c-0.1,0-0.2-0.2-0.3-0.3C107.5,47.8,107.5,48.2,107.6,48.3z M106.7,43
	c0.1,0.1,0,0.2-0.2,0.1C106.6,43.1,106.6,43,106.7,43C106.8,43.1,106.7,43,106.7,43z M105.5,43.2c-0.2-0.1-0.2-0.3-0.2-0.4
	C105.5,42.8,105.4,43,105.5,43.2z M98.3,45.7C98.4,45.9,98.3,46,98.3,45.7C98.4,45.8,98.3,45.7,98.3,45.7z M96.3,49.5
	c1.9-0.9,6.9-4.4,8.8-4.2c1.3,0.1,1.1,0.7,2,2.5c-1.9,0.9-6.9,4.4-8.8,4.2C97,51.9,97.2,51.3,96.3,49.5
	C98.6,48.5,96.6,50.1,96.3,49.5z M100.2,57.7c-1.3-2.7-2.2-2.5,1.1-4.1c-0.5-0.2-0.8-0.5-1-1c-0.3,0.9,8.3-2.5,8-2.3
	c0.7,1.4,1.4,2.2,0.8,3.2C108.1,55.1,101.8,56.9,100.2,57.7C99.7,56.7,102.5,56.6,100.2,57.7z M109.8,47.1c0.1-0.7-0.9-0.7-0.7-1.3
	C109.3,46.2,110.6,47,109.8,47.1C109.8,47,109.9,47.1,109.8,47.1z"/>
<path class="st0" d="M66.7,55.7c0,0,0.1,0,0.1,0C66.7,55.5,66.7,55.4,66.7,55.7z"/>
<path class="st0" d="M40.6,129.7c-0.1,0-0.1,0,0,0.2C40.6,129.8,40.6,129.8,40.6,129.7C40.6,129.7,40.6,129.8,40.6,129.7z"/>
<path class="st0" d="M41,133.7c0.2,0.1,0.4,0.2,0.6,0.3C41.3,132.7,41.1,132.9,41,133.7z"/>
<path class="st0" d="M44.3,131.5c0.2,0.5,0.3,0.9,0.2,1.4c0.8-1.9-2.4-1.6-1.8-1.3c-0.2-0.3-0.3-0.6-0.4-0.9c0,1.5-0.8,0.8-0.9,1.8
	c0-0.3,0.1-2.2-0.3-2.4c1.1,2.3,1,3.1-0.1,2.6c0.8,0.3,0.4,1.1,0.7,1.4c1.5,1.5,5.2,2.3,7.2,2.9c-0.1-0.6-0.2-1.1-0.2-1.7
	c0.5,0,0.2,1.6,0.8,1.8c0.5,0.1,2,0.2,1.5,0c0.5,0.2,0.6,0.7,1.4,0.9C51.9,132.5,49,133.4,44.3,131.5c0.1,0.4,0.9,0.4,1,0.5
	C45,131.8,44.6,131.6,44.3,131.5C44.3,131.8,46.7,132.5,44.3,131.5z"/>
<path class="st0" d="M68.7,69.2c-0.1,0.1-0.1,0.2,0,0.3C68.7,69.4,68.7,69.3,68.7,69.2z"/>
<path class="st0" d="M66.9,69.1c0,0,0,0.1-0.1,0.1C66.8,69.1,66.9,69.1,66.9,69.1C66.9,69.1,66.9,69.1,66.9,69.1z"/>
<g>
	<path class="st0" d="M70.8,0.5c-0.7,0,4.5,0.3,4.6,0.1"/>
	<path class="st0" d="M64.4,0.5c-0.6,0.3,0.4,0.2,0.8,0.2c0.1,0-0.8-0.2-0.8-0.4c0,0.1,2.7-0.1,2.6-0.1c-0.5,0.1-0.4,0.2,0.4,0.1
		c-0.4,0.2-0.8,0.2-1.2,0.3c1.7-0.1,3.2-0.3,5.1-0.2"/>
	<path class="st0" d="M75.2,0.4c0.4,0.2,1.7,0.3,1.6,0c0.2,0.2,0.4,0.2,0.7,0.1c-1.8,0.8,4.7,0.9,6.3,1.3c-0.1,0.1-0.2,0.1-0.3,0.2
		C83.9,2,83.9,2,83.6,1.9c0.6-0.1,3.7,0.5,4.7,1C88.2,3,88,3.1,87.9,3.2c0.3,0,0.6-0.1,0.8-0.2c-0.3,0.5,0.1,0.7-0.3,1.2
		C89.2,4,89.8,4,90.7,3.6c-0.7,0.3-2.7,0.2-0.6,0c-0.3,0-0.6,0-0.9,0c-0.1-0.1,3.8,0.7,4.3,0.9c3.1,1.1,7.7,3,11.1,4.9
		c-1.8-0.6,5.3,2.9,4.3,2.9c2,1.4,17,13.2,15.3,14.6c0.8-0.2,2.2,1.5,1.5,1.6c0.7-0.1,0.9,0.7,0.7,0.9c1.1,0.1,3.2,4.1,3.8,5
		c3.3,5.5,5.8,11.4,7.5,17.5c1.6,5.7,3.2,12.7,2.5,18.7c-0.1,0.6-1.6,5.8-2.6,4.3c0.1,0.2,2,1.4,1.5,1.9c-1.4-1.7,0.1,0.5-0.9-0.6
		c0.2,0.4,0.2,0.4-0.2,0.3c0.2,0.3,1.1,1.2,1.4,1c0-0.2-0.1-0.5-0.2-0.7c0.2-0.1,0.5-0.1,0.7,0c1.5,1.5-3.9,18.6-4,18.6
		c0,0.1-0.1,0,0,0c-14.5,31.6-46.9,51.9-82.5,43.1c3.3-2.1,4.2-2.5,7.8-2.1c2.5,0.3,9.4-0.3,9.2,1.9c1.9-3.2,12.1-2.3,16-3.3
		c7.2-1.8,14.1-4.8,20.4-8.9c5.8-3.8,11.1-8.6,15.4-14c2.1-2.6,3.7-5.6,5.7-8.3c2.3-3.1,0.6-2.2,4.1-1.7c-0.6-0.9-1.4-1.4-2.4-1.5
		c2.4-4.7,4.2-9.7,5.4-14.9c0.5-2,2.4-22.5,1.8-22.5c0.1,0-0.2,0.8,0.3,0.9c0.1-0.8,0.4-0.9,0.9-0.4c-0.3-1.3-1.1-0.9-1.6-0.5
		c-0.9-8.4-3.4-16.6-7.4-24c-1.2-2.2-10.2-17.9-13.1-16.9c0.6,0.7,0.1,0.2-0.2-0.1c0,0-1.6-1.8-2.4-2.5c-3.9-3.3-8.2-6.2-12.8-8.6
		c0-0.2,0.7,1.1,0.5,0.8c-1.2-0.2-2.4-1.1-3.3-1.4c0.1-0.1,2.4,0.8,2.6,0.6c0,0.1-1.2-0.8-0.1-0.2c-0.4-0.2-2-0.9-2.5-0.9
		c-0.2-0.5,0.3-1.5-1-1.9c0,0.3,0,0.6,0.1,0.9c0.2-0.5,0.3-0.4,0.4,0.3c-0.5,0.7-9.6-3.6-9.4-3.6c0.4,0,0.5,0.2,0.4,0.6
		c-1-0.3-7-1.5-4.3-1.6c-0.2,0.8-11-0.7-10.8-0.8c-1.5-0.1-2.9,0.1-4.3,0.2c0.3,0.8-1.3,0.3-2,0.2c0.7-0.1,1.3-0.2,1.9-0.4
		c-4.7,0.1-9.2,0.9-13.6,1.9c-0.6,0.1-3,1.1-2.9-0.8c-0.3,0.1-0.7,3.4-0.7,0c-0.3,0.1-0.4,1.7-1.5,2c0.6,0.2-0.3,0.1-1,0.3
		c0.5,0.2,0.5,0.3,0,0.2c0.6,0.2,1.1,0.2,1.7,0c0,0-0.6,0.7-0.5,0.5c-0.3,0-0.9,0.1-0.4-0.2c-0.3,0-0.7-0.1-1-0.1
		c0.2-0.2,0.3-0.4-0.4-0.8C48,7.3,47.9,7.4,48,7.1c-0.3-0.7,0.9,1.3-0.2,0.1c0,0.3,0.1,0.4,0.4,0.2c-0.1,0.1-1.1,0.4-1.2,0.6
		c0.2-0.1,0.3-0.1,0.3,0.1c-1.9,1.6-7.1,2.8-9.9,4.3c-0.3,0.1-2.9,1.7-4.2,2.5c0.2-0.2,0.3-0.2,0.4,0c-2.6,0-7.2,5.1-8.8,6.5
		c-1.8,1.6-3.4,3.3-5,5.1c-1.9,2.2-3.6,7.4-3.7,2.1c-1.4,6.3-6.3,12.1-8.6,18.6C6.1,51.4,5,55.6,4.3,59.9c-0.2,1.5-0.7,3.2-0.9,4.6
		c-0.1,0.7-1-0.4-1.2,0.2c0.5,0.3,1,0.3,1.5,0.2c-0.2,2.9,0.4,6.3-0.1,9c-0.2,1.2-2.1,2.8-0.9,4.1c-0.6,0-1,0.2-1.3,0.6
		c1,0,1.7,0,2.6-0.4c0.5,4.1-1.9,4.9-3.3,1.3c-0.8-2,0.1-4.3,0.6-5.9c-2.5,0.5-1.4-8.3,0-9.5C1,64,0.7,64,0.3,64.3
		c1-11.6,5.1-22.9,11.5-32.6c3.2-4.7,6.9-8.9,11-12.9c0.5-0.5,3.5-3.8,3.5-2.1c0.2-1.5,1.3-1.9,2.6-2.9c-0.2,0.6-0.2,1.1,0,1.7
		c0.4-0.1,0.3-2,0.9-2.4c1.5-1,3.1-2,4.6-2.9c-0.3,0.1-0.3,0.1,0,0c-0.2-0.1-0.1-0.3-0.8,0.1c0-0.6,11.1-5.1,13.5-6
		c-0.1,0.5,0,1.6-0.1,2c0.5-1.4,1.2-2.2,0.7-2.2c2.1-0.7,3.1-1.1,1.4-0.9c2.2-0.9,1.1,0.2,1.4,0c1.1-0.3,2.3-0.6,3.5-0.9
		c-0.4-0.2-0.8-0.2-1.2,0c0.9-0.4,2-0.6,3.2-0.5c-0.3,0-0.5,0.1-0.8,0.2c0-0.3,4-0.7,4.5-0.8c-0.1,0.3-0.1,0.6,0,1
		c-0.7-0.5,3.6-1.4,4.1-1.6"/>
</g>
<path class="st0" d="M34,10.2c-0.1,0.1-0.5,0.1-0.4,0.2C33.8,10.3,34,10.3,34,10.2z"/>
<g>
	<path class="st0" d="M29,124.4c0.2,3.6-3.2,0.3-5-1.2c-1.3-1.2-2.9-2.4-4-3.8c-1.3-1.7-3.3-2.8-1.3-5.3c0,0.1-0.3,1.6,0,1.8
		c0.8,0.4,0.4-1,0.7-2.2c2,2.4,3.3,3.6,5.4,5.6C26.8,121.1,31.5,126,29,124.4z"/>
	<path class="st0" d="M28.2,124.1C28.2,123.9,28.2,124.1,28.2,124.1C28.2,124.1,28.2,124.1,28.2,124.1z"/>
</g>
<path class="st0" d="M41.4,10.6c-0.4,0.1-0.8,0.3-1.2,0.5C41.4,11.1,41.5,10.5,41.4,10.6C41.1,10.7,41.1,10.8,41.4,10.6z"/>
<path class="st0" d="M18.4,112.4c-0.2-0.3-0.4-0.5-0.6-0.8c0,0.2-0.3,4.4,0,1.5c-0.1-0.8-0.4,3.6-0.3,3.5
	C18.1,116.5,18.1,112.5,18.4,112.4C18.2,112.1,18.2,112.5,18.4,112.4z"/>
<path class="st0" d="M3.8,91.2c1.5,0.2,1-2,1.1-3.1c-1.2,0.1-1.2,4.2-1,2.7C3.9,90.1,3.9,90.2,3.8,91.2C3.9,91.2,4,89.4,3.8,91.2z"
	/>
<path class="st0" d="M10.4,103.9c0.4,1.2,0.5-2.8,0.4-3.1c-0.2,1-1.8-3.7-2-4.3c-1-2.3-1.4-3.5-2.2-5.9c0.1-1.6,0,2.9-0.4,2.6
	c-0.5-0.5-0.1-2.3-0.1-2.9C5.9,90.4,5.8,93,5.7,93c-0.5-0.4,0.2-4.7,0-5.3c-0.1,0.4-0.7,5.4-0.6,5.4c-0.4,0-0.5-1.5-0.8-0.2
	c0.4-2.8-1-1.3-0.5,0.6c0.9,3.5,2.9,7.3,4.6,10.4C9.4,102.8,10.4,103.3,10.4,103.9C10.5,104.1,10.4,103.8,10.4,103.9z"/>
<path class="st0" d="M17.6,111.5c-1.5-1.9-4.1-8.8-5-4.2c0.1-0.6,0-1.2-0.2-1.7c-0.3,0.5-0.5,1.1-0.6,1.7c0-1,0.7-3.2,0.1-4.3
	c-0.1,1-0.5,1.6-0.7,2.4c0.1-1.7,0.6-2.5-0.1-4c0,1,0.5,4-0.1,5.1c-0.3,0.5-0.8-3-0.6-2.6c-0.7,4.2,2.4,7.2,5,10.4
	c0-0.4,0.1-0.8,0.3-1.2c-0.3,0.9-0.1,1.6,0.5,2.2c0-1.3,1.3-4.4,0.7-4.4C16.7,110.8,17.3,112.4,17.6,111.5
	C16,109.4,17.2,112.6,17.6,111.5z"/>
<path class="st0" d="M2.9,85.5c0,0.1,0.4,1.2,0.6,1.1c1.7-0.4,1.5-2,1.1-4.1c1.1-0.3-3.2,0.6-3.4,0.8c0,0,0,2.1,0.3,0.3
	C1.5,84.5,2.7,87.4,2.9,85.5C3,85.9,2.9,85.6,2.9,85.5z"/>
<path class="st0" d="M64.8,75.7c0-0.1-0.3-0.2-0.2,0.1C64.7,75.6,64.6,75.8,64.8,75.7z"/>
<path class="st0" d="M52,73.1c0.1,0,0.2-0.1,0.3-0.1C52.2,73.1,52.1,73.1,52,73.1C52.1,73.1,52,73.1,52,73.1z"/>
<path class="st0" d="M89.8,60.6c0.1,0,0.1-0.1,0.1-0.1C89.9,60.5,89.9,60.6,89.8,60.6C89.9,60.6,89.8,60.6,89.8,60.6z"/>
<g>
	<path class="st0" d="M35.9,71.1c0-0.2,6.3-3,6.4-3c2.9-0.1,3.2,2.9,4.6,6c-4.6,2.2-9.2,4.4-13.8,6.6c0,0.1,1.4,1.4,1.5,1.3
		c0.1-0.5-0.4,0.1,0-0.4c2.5,2.3,11.6-3.2,14.4-5.1c2.3-1.6,1.8-0.2,1.7-2.6c-0.1-2.8-4-8.5-5.2-10.9c-4,1.9-7,3.3-11.1,5.3
		c-2.2,1.1-8.7,2.8-10.1,4.8c-1,1.4-0.6,1.2,0.4,3.4C26,75.8,35.6,72.5,35.9,71.1C35.9,71,35.9,71.1,35.9,71.1z M49.8,75.7
		C49.5,76,48.9,75.4,49.8,75.7C49.7,75.8,49.6,75.6,49.8,75.7z M44.9,65.4c0.1,0,0.3,0,0.4-0.1C45.2,65.4,45,65.5,44.9,65.4
		C45,65.4,44.9,65.4,44.9,65.4z M42.6,65.3c0,0-0.1,0-0.1,0C42.4,65.1,42.5,65.2,42.6,65.3z M42.1,64.9c0,0.2,0.7,0.4-0.1,0.4
		C42.3,65,42.1,65,42.1,64.9C42.1,65.1,42.2,65.2,42.1,64.9z M35.9,69.5C35.9,70.3,35.2,69.5,35.9,69.5
		C35.9,69.6,35.7,69.5,35.9,69.5z M29,71.7c0.1,0,0.2,0,0.2,0C29.1,71.9,29,72,29,71.7z M35.2,70.9c0,0,0.7-0.5,0.7-0.1
		C35.6,70.6,35.1,70.9,35.2,70.9C35.2,70.9,35.6,70.8,35.2,70.9z"/>
	<path class="st0" d="M57.6,82.3c-1.1-4.1-0.7-4.4-4.8-3.9c0.6,2.1,2,4.3,1,6.4c-1.2,2.5-7.7,4.1-10,5.2c-3,1.4-4.7,3-7.2,0.6
		c-0.7-0.7-2.2-3.5-2.3-4.7c-0.3-0.7-0.6-1.3-0.9-2c2.4-0.2,3.1-0.8,1.9-1.7c0.7,1.1-0.1,0.1-0.4,0c0.1,0.1,0.2,0.2,0.2,0.3
		c-0.8-1.1-1.1-1.2-1.5-1.7c-2.2,1.2-1.3-2.2-3.1-2.9c-4.4-1.9-1.9,4.3-1.1,5.9c1.4,3,2.7,7.5,5,9.9c4.1,4.2,10.7-1.1,14.9-3.1
		c3.6-1.7,10-3.5,8.5-8.7c0.1,0.4,0.2,0.8,0.3,1.2C57.8,82.9,57.7,82.6,57.6,82.3C57.4,81.6,58.3,85.1,57.6,82.3z M33.9,82.5
		c-0.2,0.2-0.8-0.7-0.8-0.8C33.4,81.7,34,82.6,33.9,82.5C33.7,82.6,33.7,82.3,33.9,82.5z M33,88.7C32.9,88.2,33.3,88.8,33,88.7
		C33,88.7,33.1,88.7,33,88.7z"/>
</g>
<path class="st0" d="M81.1,65c0,0.4,0.1,0.8,0.3,1.1c0.3,0.1,0.4-1.8,0.4-1.9C81.3,64.6,81.1,65.5,81.1,65
	C81.1,65.2,81.1,64.9,81.1,65z"/>
<path class="st0" d="M54.8,84.2c0.2-0.6,0.3-1.2,0.5-1.8C53.9,83.9,53.7,84.5,54.8,84.2C54.9,83.6,54.6,84.3,54.8,84.2z"/>
<path class="st0" d="M97.6,62.8c-0.3-0.4-0.6-0.8-0.9-1.2c-0.7,1.2-1.3,2.4-2,3.6c-0.8-1.7-1.7-3.5-2.5-5.2c1.1-0.5,2.2-1,3.2-1.5
	c-1.7-3.6-1-0.5-3.6-1.3c-1.4-0.4-1.3-0.8-2.4-3c0.9-0.4,1.9-0.9,2.8-1.3c-1.4-2.9-2.5-2.8-3.2,0.4c-0.5-0.5-0.6-1.1-0.3-1.7
	c-1.3,0.6-2.7,1.3-4,1.9c0.2-1.9-0.4-3.1,1.4-3.9c-0.2,0.1-0.3,0-0.4-0.1c1.6-0.2,3.2-1.2,4.6-1.9c-1.6-3.4-2.3-1.9-5.6-0.3
	c-0.1-1.3-0.2-2.5-0.3-3.8c-3.6,1.1-2.3,0.2-2.7,3.2c-0.2,1.2-0.5,6,0.1,7.3c0.5,1,2.7,1.9,3.3,2.3c0.4,0.2,1.3-0.9,1.6-0.6
	c0.7,0.6,1.2,2.5,1.6,3.3c-0.8,0.4-5.7,3.2-2,3.9c2.3,0.5,1.5-2,3.7-0.3c1.6,1.2,1.1,4.6,2.1,5.8c0.6,0.8,1.5,1.4,2.6,2
	C95.8,67.2,98.8,64.7,97.6,62.8C97.3,62.3,97.9,63.3,97.6,62.8z M85.8,48.7C85.7,48.7,85.6,49,85.8,48.7
	C85.8,48.7,85.8,48.8,85.8,48.7z M85.3,47c0.2,0-0.1,0.1,0.2,0.1C85.4,47.2,85.2,47.1,85.3,47z M83.6,45.4
	C84.4,45.4,83,45.7,83.6,45.4C83.7,45.4,83.5,45.4,83.6,45.4z M83.7,46.8c-0.1-0.1,0-0.1,0.2-0.1C83.8,46.7,83.7,46.7,83.7,46.8
	C83.6,46.7,83.7,46.7,83.7,46.8z M83.7,46.8C83.7,46.8,83.7,46.8,83.7,46.8C83.7,46.8,83.7,46.8,83.7,46.8z M83.4,47.1
	C83.5,46.8,83.6,47.8,83.4,47.1C83.4,47.1,83.4,47.2,83.4,47.1z M83.4,47.3c0,0-0.1,0-0.1-0.1C83.4,47.3,83.4,47.3,83.4,47.3
	C83.4,47.4,83.4,47.3,83.4,47.3z M83.5,46.5c-0.1-0.1,0-0.1,0.1,0C83.6,46.5,83.5,46.5,83.5,46.5C83.4,46.4,83.5,46.5,83.5,46.5z
	 M83.3,46.5C83.3,46.6,83.3,46.5,83.3,46.5C83.3,46.5,83.3,46.5,83.3,46.5z M82.2,45.8C83,45.9,81.6,46.1,82.2,45.8
	C82.3,45.8,82.1,45.8,82.2,45.8z M82.3,47.2c-0.1-0.1,0-0.1,0.2-0.1C82.4,47.1,82.3,47.2,82.3,47.2C82.2,47.1,82.3,47.2,82.3,47.2z
	 M82.3,47.2C82.3,47.2,82.3,47.2,82.3,47.2C82.3,47.2,82.3,47.2,82.3,47.2z M82,47.6C82.1,47.3,82.2,48.2,82,47.6
	C82,47.5,82,47.6,82,47.6z M82.1,47.8c0,0-0.1,0-0.1-0.1C82,47.7,82,47.8,82.1,47.8C82,47.8,82,47.8,82.1,47.8z M82.1,47
	c-0.1-0.1,0-0.1,0.1,0C82.2,46.9,82.1,47,82.1,47C82,46.9,82.1,47,82.1,47z M81.9,46.9C81.9,47.1,81.9,47,81.9,46.9
	C81.9,47,81.9,47,81.9,46.9z M81.9,47.1c0.1,0,0.1,0,0.1,0.1C82,47.2,81.9,47.2,81.9,47.1C82,47.1,81.9,47.2,81.9,47.1z M81.9,48.1
	c0.3,0,0,0.1,0.2,0.1C81.7,48.3,82,48.1,81.9,48.1z M82.3,48c-0.2,0,0-0.1,0-0.1C82.5,47.8,82.6,48,82.3,48z M82.6,46.4
	c-0.3,0.1-0.5,0-0.2-0.1C82.7,46.2,82.6,46.3,82.6,46.4z M83.4,46.7c0,0,0,0.1,0.1,0.1C83.4,46.8,83.4,46.7,83.4,46.7
	C83.4,46.7,83.3,46.7,83.4,46.7z M83.3,47.7c0.3,0,0,0.1,0.2,0.1C83.1,47.9,83.4,47.7,83.3,47.7z M83.7,47.6c-0.2,0,0-0.1,0-0.1
	C83.9,47.4,84,47.5,83.7,47.6z M84,45.9c-0.3,0.1-0.5,0-0.2-0.1C84.1,45.7,84,45.9,84,45.9z M86.9,53.1
	C86.7,53.1,86.8,52.8,86.9,53.1C86.8,53.1,86.9,53,86.9,53.1z M86.8,52.7c0,0.1,0,0.3-0.2,0.2C86.7,52.9,86.8,52.8,86.8,52.7
	C86.8,52.8,86.8,52.8,86.8,52.7z M86.7,53.2c0.1-0.1,0.2-0.1,0.2,0C86.8,53.2,86.8,53.2,86.7,53.2C86.8,53.1,86.8,53.2,86.7,53.2z
	 M86.9,53.6C86.9,53.6,87,53.6,86.9,53.6C86.9,53.6,86.9,53.6,86.9,53.6z M87,53.9C87,53.9,87,53.9,87,53.9C87,53.9,87,53.9,87,53.9
	z"/>
<path class="st0" d="M76.3,60.6c-0.2,0.2-0.4,0.4-0.6,0.6c0.9-1.2,1.4-2.6,1.6-4.1c-3.9-0.1-1.6-0.1-3.3,1.9
	c-0.4,0.5-0.3,1.8-0.8,2.5c-0.7,1-3.4,1.6-4.4,2.3c1.4-4.4,0.6-6,4.6-8.3c3.5-2,6.6-1.2,4.6-5.5c-1.4,0.7-5,3.1-6.4,3
	c-0.9,0-1.5-1.9-2-0.9c-1.5-2.2-1-2-4.2,0c1,0.8,1.8,1.6,2.6,2.6c-2.5,1.2-4.6,2.9-6.8,3.8c1.6,3.4,2.9,1.3,6-0.1
	c-0.4,2.6-3,7-1.2,8.7c1.9,1.8,4.8-1.5,6.8-2.5c-1.3,3.4-3.4,6.4-5.8,9.1c2.7,0.9,1.7,1.6,3.6,1c1.7-0.6,3.5-5.5,4.2-7.1
	C75.2,66.5,77.5,60.6,76.3,60.6C76.1,60.8,76.5,60.6,76.3,60.6z M73.4,53.6C73.4,53.5,73.5,53.4,73.4,53.6
	C73.4,53.6,73.5,53.6,73.4,53.6z M73.4,53C72.9,53.1,73.8,52.9,73.4,53C73.4,53,73.5,53,73.4,53z M73.7,53c0,0,0.1,0,0.1,0
	C73.8,53,73.7,53,73.7,53C73.7,53,73.7,53,73.7,53z M73.2,52.8c0-0.1,0.4,0,0.6,0c-0.1,0-0.6,0.1-0.5,0.1
	C72.9,53.2,73.2,51.6,73.2,52.8C73.2,52.7,73.2,52.7,73.2,52.8z M70.8,54.3c-0.1,0.1-0.1,0-0.1-0.1C70.8,54.2,70.8,54.3,70.8,54.3
	C70.8,54.4,70.8,54.3,70.8,54.3z M66.6,62.1c0-0.1,0-0.1,0-0.2C66.6,62,66.6,62.1,66.6,62.1z M67.9,57.4
	C67.8,56.9,68.5,56.8,67.9,57.4C67.9,57.3,68,57.3,67.9,57.4z M72.9,63C72.8,62.7,73,63.1,72.9,63C72.9,63,72.9,63,72.9,63z"/>
<path class="st0" d="M49.9,8.1"/>
</svg>
